<svg width="400" height="400" viewBox="0 0 400 400" fill="none" xmlns="http://www.w3.org/2000/svg">
<path d="M346.529 183.048C345.849 180.011 344.439 177.186 342.42 174.816C340.402 172.447 337.836 170.604 334.945 169.447L253.17 136.771L270.091 24.0583C270.712 20.0108 270.018 15.8711 268.112 12.2462C266.206 8.62131 263.187 5.70209 259.498 3.91673C255.81 2.13136 251.646 1.57382 247.617 2.32587C243.588 3.07792 239.907 5.09999 237.112 8.09547L58.1597 199.649C56.0325 201.925 54.4928 204.684 53.6738 207.689C52.8548 210.693 52.7813 213.852 53.4595 216.891C54.1378 219.93 55.5475 222.758 57.5664 225.13C59.5854 227.503 62.1528 229.347 65.0462 230.505L146.821 263.181L129.9 375.942C129.279 379.989 129.973 384.129 131.879 387.754C133.785 391.379 136.804 394.298 140.493 396.083C144.181 397.869 148.345 398.426 152.374 397.674C156.403 396.922 160.084 394.9 162.879 391.905L341.831 200.351C343.968 198.069 345.513 195.298 346.331 192.282C347.15 189.266 347.218 186.096 346.529 183.048ZM176.987 320.599L187.005 253.922C187.646 249.655 186.825 245.296 184.676 241.553C182.527 237.81 179.176 234.901 175.166 233.298L105.31 205.379L223.004 79.4012L212.986 146.078C212.345 150.345 213.166 154.704 215.315 158.447C217.464 162.19 220.815 165.099 224.825 166.702L294.68 194.621L176.987 320.599Z" fill="#10B3A3"/>
</svg>
