<svg width="797" height="186" viewBox="0 0 797 186" fill="none" xmlns="http://www.w3.org/2000/svg">
<path opacity="0.2" d="M6.00001 152H791C794.314 152 797 154.686 797 158V159C797 162.314 794.314 165 791 165H6C2.68629 165 0 162.314 0 159V158C0 154.686 2.6863 152 6.00001 152Z" fill="#3E63DD"/>
<path opacity="0.2" d="M27.75 72.625H64.75V137.375H27.75V72.625ZM110.214 53.1942C110.091 52.5969 109.851 52.0299 109.508 51.5257C109.164 51.0215 108.725 50.5902 108.215 50.2565C107.704 49.9229 107.133 49.6934 106.533 49.5814C105.934 49.4695 105.318 49.4771 104.722 49.604L77.6595 55.3853C76.4564 55.6511 75.4073 56.3821 74.7412 57.4186C74.0751 58.4552 73.846 59.7131 74.1041 60.918L80.8161 92.8594L116.926 85.1009L110.214 53.1942Z" fill="#3E63DD"/>
<path d="M133.923 143.474L114.735 52.2461C114.487 51.0531 114.005 49.9209 113.318 48.9145C112.631 47.9081 111.752 47.0474 110.731 46.3818C109.71 45.7162 108.568 45.2588 107.37 45.036C106.172 44.8131 104.942 44.8291 103.75 45.0832L76.6883 50.8991C74.2945 51.4232 72.2046 52.8713 70.8729 54.9283C69.5413 56.9853 69.0757 59.4849 69.5773 61.8835L88.7653 153.112C89.1929 155.193 90.3241 157.064 91.9686 158.409C93.6132 159.755 95.6708 160.493 97.7956 160.5C98.4525 160.499 99.1074 160.429 99.7497 160.292L126.812 154.476C129.208 153.951 131.3 152.5 132.632 150.439C133.964 148.379 134.428 145.875 133.923 143.474ZM78.625 59.993C78.625 59.9583 78.625 59.941 78.625 59.941L105.681 54.1597L107.606 63.3346L80.5502 69.1563L78.625 59.993ZM82.4522 78.1866L109.52 72.3764L111.451 81.5686L84.4062 87.3846L82.4522 78.1866ZM86.2909 96.438L113.359 90.6221L121.048 127.183L93.98 132.999L86.2909 96.438ZM124.875 145.434L97.8187 151.215L95.8936 142.041L122.95 136.219L124.875 145.382C124.875 145.417 124.875 145.434 124.875 145.434ZM60.125 49.5H32.375C29.9217 49.5 27.569 50.4746 25.8343 52.2093C24.0996 53.944 23.125 56.2968 23.125 58.75V151.25C23.125 153.703 24.0996 156.056 25.8343 157.791C27.569 159.525 29.9217 160.5 32.375 160.5H60.125C62.5783 160.5 64.931 159.525 66.6657 157.791C68.4004 156.056 69.375 153.703 69.375 151.25V58.75C69.375 56.2968 68.4004 53.944 66.6657 52.2093C64.931 50.4746 62.5783 49.5 60.125 49.5ZM32.375 58.75H60.125V68H32.375V58.75ZM32.375 77.25H60.125V132.75H32.375V77.25ZM60.125 151.25H32.375V142H60.125V151.25Z" fill="#3E63DD"/>
<path opacity="0.2" d="M254.375 131.969V148.594C254.374 150.13 253.947 151.637 253.142 152.946C252.336 154.254 251.184 155.314 249.813 156.008C248.441 156.701 246.904 157 245.373 156.873C243.841 156.745 242.375 156.196 241.137 155.285C232.83 149.248 220.605 144.438 204.5 144.438C188.395 144.438 176.17 149.248 167.863 155.285C166.625 156.196 165.159 156.745 163.627 156.873C162.096 157 160.559 156.701 159.187 156.008C157.816 155.314 156.664 154.254 155.858 152.946C155.053 151.637 154.626 150.13 154.625 148.594V131.969C169.014 121.177 186.514 115.344 204.5 115.344C222.486 115.344 239.986 121.177 254.375 131.969Z" fill="#3E63DD"/>
<path d="M204.5 65.4688C190.175 65.4853 176.442 71.1831 166.312 81.3124C156.183 91.4416 150.485 105.175 150.469 119.5V148.594C150.469 151.901 151.782 155.072 154.121 157.41C156.459 159.749 159.631 161.062 162.938 161.062C165.586 161.058 168.165 160.214 170.304 158.652C176.617 154.064 187.667 148.594 204.5 148.594C221.333 148.594 232.383 154.059 238.69 158.647C240.548 160.009 242.747 160.83 245.043 161.018C247.34 161.206 249.643 160.755 251.698 159.713C253.753 158.672 255.48 157.082 256.686 155.119C257.892 153.156 258.531 150.898 258.531 148.594V119.5C258.515 105.175 252.817 91.4416 242.688 81.3124C232.558 71.1831 218.825 65.4853 204.5 65.4688ZM250.219 119.5V124.108C243.589 120.006 236.434 116.822 228.949 114.642C227.341 100.311 222.186 86.6066 213.95 74.7684C224.201 76.9489 233.395 82.5794 239.995 90.7203C246.596 98.8611 250.204 109.02 250.219 119.5ZM204.5 75.9996C212.799 86.6557 218.236 99.2568 220.294 112.606C209.843 110.715 199.137 110.715 188.685 112.606C190.768 99.2602 196.21 86.6634 204.5 75.9996ZM195.05 74.7684C186.813 86.6081 181.658 100.314 180.051 114.648C172.566 116.827 165.411 120.011 158.781 124.113V119.5C158.796 109.02 162.404 98.8611 169.005 90.7203C175.605 82.5794 184.799 76.9489 195.05 74.7684ZM247.964 152.288C247.273 152.644 246.495 152.799 245.72 152.736C244.945 152.673 244.203 152.393 243.579 151.929C236.275 146.62 223.567 140.281 204.5 140.281C185.433 140.281 172.725 146.62 165.421 151.929C164.797 152.393 164.055 152.673 163.28 152.736C162.505 152.799 161.727 152.644 161.036 152.288C160.348 151.949 159.771 151.422 159.372 150.768C158.973 150.114 158.768 149.36 158.781 148.594V134.083C172.139 124.598 188.117 119.503 204.5 119.503C220.883 119.503 236.861 124.598 250.219 134.083V148.594C250.232 149.36 250.027 150.114 249.628 150.768C249.229 151.422 248.652 151.949 247.964 152.288Z" fill="#3E63DD"/>
<path opacity="0.2" d="M616.906 100.938L607.147 144.593C606.883 145.772 606.222 146.827 605.274 147.583C604.325 148.338 603.146 148.75 601.93 148.75H557.07C555.854 148.75 554.675 148.338 553.726 147.583C552.778 146.827 552.117 145.772 551.853 144.593L542.094 100.938H616.906Z" fill="#3E63DD"/>
<path d="M627.593 95.625H576.36L577.93 94.0644L591.329 80.7433C596.741 83.4529 602.704 84.8975 608.763 84.9668C614.862 84.9828 620.847 83.3236 626.057 80.1723C641.901 70.6363 650.391 48.5629 648.768 21.1238C648.691 19.8241 648.138 18.5976 647.212 17.677C646.286 16.7564 645.052 16.206 643.745 16.1301C616.144 14.523 593.941 22.9566 584.342 38.7082C578.097 48.968 577.936 61.3594 583.768 73.2394L574.156 82.7953L566 74.6871C570.008 65.8883 569.72 56.7574 565.071 49.134C557.81 37.1875 541.158 30.8125 520.538 32.0211C519.233 32.0984 518.001 32.6486 517.077 33.5677C516.153 34.4867 515.599 35.7108 515.521 37.0082C514.306 57.5078 520.718 74.0562 532.742 81.2812C536.764 83.723 541.388 85.0101 546.101 85C550.377 84.9578 554.594 84.0092 558.472 82.2176L566.601 90.3125L561.257 95.625H531.406C529.988 95.625 528.629 96.1847 527.627 97.181C526.625 98.1773 526.062 99.5285 526.062 100.937C526.062 102.346 526.625 103.698 527.627 104.694C528.629 105.69 529.988 106.25 531.406 106.25H537.811L546.635 145.742C547.15 148.108 548.468 150.227 550.368 151.742C552.268 153.257 554.634 154.076 557.069 154.062H601.936C604.371 154.074 606.736 153.253 608.635 151.739C610.534 150.224 611.853 148.107 612.37 145.742L621.194 106.25H627.593C629.01 106.25 630.37 105.69 631.372 104.694C632.374 103.698 632.937 102.346 632.937 100.937C632.937 99.5285 632.374 98.1773 631.372 97.181C630.37 96.1847 629.01 95.625 627.593 95.625ZM593.527 44.2133C600.514 32.7515 617.059 26.2836 638.281 26.5691C638.554 47.6929 632.062 64.1418 620.533 71.0613C612.844 75.7098 603.566 75.4043 594.295 70.2777C589.131 61.0937 588.851 51.8566 593.527 44.2133ZM555.526 71.7918C549.381 75.059 543.295 75.2117 538.272 72.1902C530.591 67.5617 526.162 56.6512 526.062 42.5C540.296 42.5996 551.278 47.0023 555.927 54.639C558.973 59.6328 558.792 65.6824 555.526 71.7918ZM601.936 143.437H557.069L548.773 106.25H610.226L601.936 143.437Z" fill="#3E63DD"/>
<mask id="mask0_1_2" style="mask-type:luminance" maskUnits="userSpaceOnUse" x="271" y="37" width="121" height="122">
<path d="M392 37H271V159H392V37Z" fill="white"/>
</mask>
<g mask="url(#mask0_1_2)">
<path d="M392 48.0909V147.909C392 150.853 391.02 153.676 389.28 155.753C387.54 157.83 385.16 159 382.7 159H280.3C277.84 159 275.46 157.83 273.72 155.753C271.98 153.676 271 150.853 271 147.909V48.0909C271 45.1468 271.98 42.3236 273.72 40.2466C275.48 38.1696 277.84 37 280.3 37H382.7C385.16 37 387.54 38.1696 389.28 40.2466C391.02 42.3236 392 45.1468 392 48.0909ZM382.7 147.909V48.0909H280.3V147.909H382.7Z" fill="#3E63DD"/>
<path opacity="0.2" d="M331.5 60.8152C324.2 60.8152 317.08 62.9931 311 67.0867C304.94 71.1802 300.2 76.9878 297.42 83.7835C294.62 90.5792 293.9 98.0605 295.32 105.28C296.74 112.499 300.26 119.113 305.42 124.316C310.58 129.518 317.16 133.067 324.3 134.499C331.46 135.931 338.88 135.205 345.62 132.382C352.36 129.559 358.12 124.8 362.18 118.69C366.24 112.58 368.4 105.381 368.4 98.0202C368.4 88.1594 364.52 78.7019 357.6 71.7247C350.68 64.7475 341.3 60.8354 331.52 60.8354L331.5 60.8152ZM331.5 107.296C329.68 107.296 327.9 106.752 326.38 105.723C324.86 104.695 323.68 103.243 322.98 101.549C322.28 99.8552 322.1 97.9799 322.46 96.1852C322.82 94.3905 323.7 92.7167 324.98 91.4262C326.26 90.1356 327.92 89.2483 329.7 88.8853C331.48 88.5224 333.34 88.7038 335.02 89.4096C336.7 90.1154 338.14 91.3052 339.16 92.8377C340.18 94.3703 340.72 96.165 340.72 98C340.72 100.46 339.74 102.84 338.02 104.574C336.3 106.308 333.94 107.296 331.5 107.296Z" fill="#3E63DD"/>
<path d="M331.5 57.7098C323.6 57.7098 315.88 60.0691 309.3 64.5055C302.72 68.9418 297.6 75.2334 294.58 82.5937C291.56 89.9541 290.76 98.0605 292.3 105.864C293.84 113.689 297.64 120.867 303.24 126.494C308.82 132.12 315.94 135.971 323.7 137.524C331.46 139.077 339.48 138.29 346.78 135.225C354.08 132.18 360.32 127.018 364.72 120.383C369.12 113.749 371.46 105.965 371.46 98C371.46 87.3124 367.24 77.0685 359.74 69.5266C352.24 61.9647 342.1 57.7299 331.5 57.7098ZM331.5 132.1C324.82 132.1 318.28 130.103 312.72 126.352C307.16 122.602 302.82 117.278 300.26 111.047C297.7 104.816 297.04 97.9597 298.34 91.3455C299.64 84.7313 302.86 78.6615 307.6 73.8823C312.32 69.1233 318.36 65.8767 324.92 64.5458C331.48 63.2351 338.28 63.9005 344.46 66.4817C350.64 69.0628 355.92 73.4387 359.64 79.0447C363.36 84.6506 365.34 91.2447 365.34 97.9799C365.34 107.014 361.76 115.685 355.42 122.077C349.08 128.47 340.48 132.059 331.52 132.079L331.5 132.1ZM331.5 76.3223C325.8 76.3223 320.32 78.6212 316.3 82.6744C312.26 86.7478 310 92.2529 310 98C310 98.8268 309.68 99.6132 309.1 100.198C308.52 100.783 307.74 101.105 306.92 101.105C306.1 101.105 305.32 100.783 304.74 100.198C304.16 99.6132 303.84 98.8268 303.84 98C303.84 90.5994 306.76 83.5213 311.96 78.2784C317.14 73.0556 324.18 70.1114 331.52 70.0913C332.34 70.0913 333.12 70.4139 333.7 70.9987C334.28 71.5835 334.6 72.3699 334.6 73.1967C334.6 74.0235 334.28 74.8099 333.7 75.3947C333.12 75.9795 332.34 76.3022 331.52 76.3022L331.5 76.3223ZM359.16 98.0202C359.16 105.421 356.24 112.499 351.04 117.742C345.86 122.965 338.82 125.909 331.48 125.929C330.66 125.929 329.88 125.606 329.3 125.022C328.72 124.437 328.4 123.65 328.4 122.823C328.4 121.997 328.72 121.21 329.3 120.625C329.88 120.041 330.66 119.718 331.48 119.718C337.18 119.718 342.66 117.419 346.68 113.366C350.72 109.293 352.98 103.787 352.98 98.0404C352.98 97.2136 353.3 96.4271 353.88 95.8423C354.46 95.2575 355.24 94.9349 356.06 94.9349C356.88 94.9349 357.66 95.2575 358.24 95.8423C358.82 96.4271 359.14 97.2136 359.14 98.0404L359.16 98.0202ZM343.8 98.0202C343.8 95.56 343.08 93.1805 341.72 91.1237C340.36 89.087 338.44 87.4939 336.2 86.5663C333.96 85.6185 331.48 85.3766 329.1 85.8605C326.72 86.3445 324.52 87.5141 322.8 89.2483C321.08 90.9825 319.9 93.2007 319.44 95.6004C318.96 98 319.2 100.501 320.14 102.759C321.08 105.018 322.64 106.953 324.66 108.325C326.68 109.696 329.06 110.422 331.5 110.422C334.76 110.422 337.88 109.111 340.2 106.792C342.5 104.473 343.8 101.307 343.8 98.0202ZM325.36 98.0202C325.36 96.7901 325.72 95.6004 326.4 94.5719C327.08 93.5435 328.04 92.757 329.16 92.2932C330.28 91.8294 331.52 91.7085 332.72 91.9504C333.92 92.1924 335 92.7772 335.86 93.6443C336.72 94.5114 337.3 95.6205 337.54 96.8103C337.78 98.0202 337.66 99.2503 337.2 100.4C336.74 101.529 335.94 102.497 334.94 103.183C333.92 103.868 332.74 104.231 331.52 104.231C329.88 104.231 328.32 103.586 327.18 102.416C326.02 101.247 325.38 99.6737 325.38 98.0404L325.36 98.0202Z" fill="#3E63DD"/>
</g>
<mask id="mask1_1_2" style="mask-type:luminance" maskUnits="userSpaceOnUse" x="650" y="54" width="124" height="105">
<path d="M774 54H650V158.922H774V54Z" fill="white"/>
</mask>
<g mask="url(#mask1_1_2)">
<path opacity="0.2" d="M766.138 57H658.862C657.561 57 656.321 57.5228 655.42 58.4276C654.52 59.3324 654 60.5991 654 61.8859V150.114C654 151.421 654.52 152.668 655.42 153.572C656.321 154.477 657.581 155 658.862 155H766.138C767.439 155 768.679 154.477 769.58 153.572C770.48 152.668 771 151.401 771 150.114V61.906C771 60.5991 770.48 59.3525 769.58 58.4477C768.679 57.5429 767.419 57.0201 766.138 57.0201V57ZM712.5 135.416C690.953 135.416 673.487 122.246 673.487 106.02C673.487 89.794 690.953 76.6241 712.5 76.6241C734.047 76.6241 751.513 89.794 751.513 106.02C751.513 122.246 734.047 135.416 712.5 135.416Z" fill="#3E63DD"/>
<path d="M764.471 54H659.549C657.005 54 654.579 54.9979 652.798 56.7982C651.018 58.5788 650 61.0052 650 63.549V149.392C650 151.916 650.998 154.343 652.798 156.143C654.579 157.924 657.005 158.941 659.549 158.941H764.471C766.995 158.941 769.421 157.943 771.221 156.143C773.002 154.362 774.02 151.936 774.02 149.392V63.549C774.02 61.0248 773.022 58.5984 771.221 56.7982C769.441 55.0175 767.014 54 764.471 54ZM764.471 149.392H659.549V63.549H764.471V149.392Z" fill="#3E63DD"/>
<path d="M712.178 141.641C686.172 141.641 665 126.026 665 106.83C665 87.6345 686.153 72 712.178 72C738.202 72 759.355 87.615 759.355 106.811C759.355 126.007 738.183 141.622 712.178 141.622V141.641ZM712.178 79.827C690.477 79.827 672.827 91.9394 672.827 106.811C672.827 121.682 690.477 133.795 712.178 133.795C733.878 133.795 751.528 121.682 751.528 106.811C751.528 91.9394 733.878 79.827 712.178 79.827Z" fill="#3E63DD"/>
<path opacity="0.2" d="M698.125 106.226V112.688C698.125 113.549 697.783 114.376 697.173 114.986C696.564 115.595 695.737 115.938 694.875 115.938H685.125C684.263 115.938 683.436 115.595 682.827 114.986C682.217 114.376 681.875 113.549 681.875 112.688V106.226L687.562 98.875H692.438L698.125 106.226Z" fill="#3E63DD"/>
<path d="M701.345 106.695L699.677 97.7578C699.637 97.54 699.552 97.3327 699.428 97.1489C699.304 96.9651 699.144 96.8085 698.958 96.6888C698.771 96.5692 698.562 96.4889 698.343 96.453C698.124 96.4171 697.901 96.4264 697.686 96.4802L697.654 96.4893L692.32 98.0625H687.679L682.345 96.4944L682.313 96.4852C682.098 96.4314 681.875 96.4222 681.656 96.4581C681.437 96.494 681.228 96.5742 681.041 96.6939C680.855 96.8136 680.695 96.9701 680.571 97.154C680.447 97.3378 680.362 97.545 680.322 97.7629L678.654 106.695C678.583 107.053 678.636 107.424 678.804 107.748C678.972 108.072 679.246 108.328 679.58 108.475C679.794 108.573 680.026 108.624 680.262 108.625C680.543 108.625 680.82 108.549 681.062 108.406V112.687C681.062 113.765 681.49 114.798 682.252 115.56C683.014 116.322 684.047 116.75 685.125 116.75H694.875C695.952 116.75 696.985 116.322 697.747 115.56C698.509 114.798 698.937 113.765 698.937 112.687V108.407C699.179 108.55 699.455 108.626 699.736 108.626C699.972 108.625 700.204 108.574 700.419 108.477C700.753 108.33 701.027 108.073 701.196 107.749C701.364 107.425 701.417 107.053 701.345 106.695ZM680.25 107L681.918 98.0625L686.191 99.3188L680.25 107ZM694.875 115.125H690.812V113.836L692.199 112.45C692.352 112.297 692.437 112.091 692.437 111.875C692.437 111.659 692.352 111.453 692.199 111.3C692.047 111.148 691.84 111.062 691.625 111.062C691.409 111.062 691.202 111.148 691.05 111.3L690 112.351L688.949 111.3C688.797 111.148 688.59 111.062 688.375 111.062C688.159 111.062 687.952 111.148 687.8 111.3C687.647 111.453 687.562 111.659 687.562 111.875C687.562 112.091 687.647 112.297 687.8 112.45L689.187 113.836V115.125H685.125C684.478 115.125 683.858 114.868 683.401 114.411C682.944 113.954 682.687 113.334 682.687 112.687V106.503L687.961 99.6875H692.038L697.312 106.503V112.687C697.312 113.334 697.055 113.954 696.598 114.411C696.141 114.868 695.521 115.125 694.875 115.125ZM699.75 107L693.808 99.3188L698.081 98.0625L699.75 107ZM687.562 108.219C687.562 108.46 687.491 108.695 687.357 108.896C687.223 109.096 687.032 109.252 686.81 109.345C686.587 109.437 686.342 109.461 686.105 109.414C685.869 109.367 685.652 109.251 685.481 109.081C685.311 108.91 685.195 108.693 685.148 108.457C685.101 108.22 685.125 107.975 685.217 107.752C685.31 107.53 685.466 107.339 685.666 107.205C685.867 107.071 686.102 107 686.343 107C686.666 107 686.976 107.128 687.205 107.357C687.434 107.586 687.562 107.896 687.562 108.219ZM694.875 108.219C694.875 108.46 694.803 108.695 694.669 108.896C694.535 109.096 694.345 109.252 694.122 109.345C693.899 109.437 693.654 109.461 693.418 109.414C693.182 109.367 692.964 109.251 692.794 109.081C692.624 108.91 692.507 108.693 692.46 108.457C692.413 108.22 692.438 107.975 692.53 107.752C692.622 107.53 692.778 107.339 692.979 107.205C693.179 107.071 693.415 107 693.656 107C693.979 107 694.289 107.128 694.518 107.357C694.746 107.586 694.875 107.896 694.875 108.219Z" fill="#3E63DD"/>
<path opacity="0.2" d="M742.125 106.226V112.688C742.125 113.549 741.783 114.376 741.173 114.986C740.564 115.595 739.737 115.938 738.875 115.938H729.125C728.263 115.938 727.436 115.595 726.827 114.986C726.217 114.376 725.875 113.549 725.875 112.688V106.226L731.562 98.875H736.438L742.125 106.226Z" fill="#3E63DD"/>
<path d="M745.345 106.695L743.677 97.7578C743.637 97.54 743.552 97.3327 743.428 97.1489C743.304 96.9651 743.144 96.8085 742.958 96.6888C742.771 96.5692 742.562 96.4889 742.343 96.453C742.124 96.4171 741.901 96.4264 741.686 96.4802L741.654 96.4893L736.32 98.0625H731.679L726.345 96.4944L726.313 96.4852C726.098 96.4314 725.875 96.4222 725.656 96.4581C725.437 96.494 725.228 96.5742 725.041 96.6939C724.855 96.8136 724.695 96.9701 724.571 97.154C724.447 97.3378 724.362 97.545 724.322 97.7629L722.654 106.695C722.583 107.053 722.636 107.424 722.804 107.748C722.972 108.072 723.246 108.328 723.58 108.475C723.794 108.573 724.026 108.624 724.262 108.625C724.543 108.625 724.82 108.549 725.062 108.406V112.687C725.062 113.765 725.49 114.798 726.252 115.56C727.014 116.322 728.047 116.75 729.125 116.75H738.875C739.952 116.75 740.985 116.322 741.747 115.56C742.509 114.798 742.937 113.765 742.937 112.687V108.407C743.179 108.55 743.455 108.626 743.736 108.626C743.972 108.625 744.204 108.574 744.419 108.477C744.753 108.33 745.027 108.073 745.196 107.749C745.364 107.425 745.417 107.053 745.345 106.695ZM724.25 107L725.918 98.0625L730.191 99.3188L724.25 107ZM738.875 115.125H734.812V113.836L736.199 112.45C736.352 112.297 736.437 112.091 736.437 111.875C736.437 111.659 736.352 111.453 736.199 111.3C736.047 111.148 735.84 111.062 735.625 111.062C735.409 111.062 735.202 111.148 735.05 111.3L734 112.351L732.949 111.3C732.797 111.148 732.59 111.062 732.375 111.062C732.159 111.062 731.952 111.148 731.8 111.3C731.647 111.453 731.562 111.659 731.562 111.875C731.562 112.091 731.647 112.297 731.8 112.45L733.187 113.836V115.125H729.125C728.478 115.125 727.858 114.868 727.401 114.411C726.944 113.954 726.687 113.334 726.687 112.687V106.503L731.961 99.6875H736.038L741.312 106.503V112.687C741.312 113.334 741.055 113.954 740.598 114.411C740.141 114.868 739.521 115.125 738.875 115.125ZM743.75 107L737.808 99.3188L742.081 98.0625L743.75 107ZM731.562 108.219C731.562 108.46 731.491 108.695 731.357 108.896C731.223 109.096 731.032 109.252 730.81 109.345C730.587 109.437 730.342 109.461 730.105 109.414C729.869 109.367 729.652 109.251 729.481 109.081C729.311 108.91 729.195 108.693 729.148 108.457C729.101 108.22 729.125 107.975 729.217 107.752C729.31 107.53 729.466 107.339 729.666 107.205C729.867 107.071 730.102 107 730.343 107C730.666 107 730.976 107.128 731.205 107.357C731.434 107.586 731.562 107.896 731.562 108.219ZM738.875 108.219C738.875 108.46 738.803 108.695 738.669 108.896C738.535 109.096 738.345 109.252 738.122 109.345C737.899 109.437 737.654 109.461 737.418 109.414C737.182 109.367 736.964 109.251 736.794 109.081C736.624 108.91 736.507 108.693 736.46 108.457C736.413 108.22 736.438 107.975 736.53 107.752C736.622 107.53 736.778 107.339 736.979 107.205C737.179 107.071 737.415 107 737.656 107C737.979 107 738.289 107.128 738.518 107.357C738.746 107.586 738.875 107.896 738.875 108.219Z" fill="#3E63DD"/>
<path opacity="0.2" d="M719.272 104.516V110.963C719.272 114.523 715.956 117.409 711.869 117.409C707.783 117.409 704.467 114.523 704.467 110.963V104.516C704.467 104.4 704.503 104.287 704.571 104.19C704.638 104.094 704.735 104.019 704.848 103.974C704.96 103.93 705.084 103.918 705.204 103.941C705.324 103.964 705.434 104.02 705.52 104.102L707.212 105.952C708.566 105.019 710.196 104.516 711.869 104.516C713.542 104.516 715.173 105.019 716.527 105.952L718.219 104.103C718.305 104.021 718.415 103.965 718.534 103.943C718.654 103.92 718.778 103.931 718.891 103.976C719.003 104.02 719.1 104.095 719.168 104.191C719.235 104.287 719.272 104.4 719.272 104.516Z" fill="#3E63DD"/>
<path d="M709.404 111.256C709.404 111.43 709.349 111.6 709.248 111.744C709.146 111.889 709.001 112.001 708.832 112.068C708.663 112.134 708.477 112.152 708.298 112.118C708.118 112.084 707.953 112 707.824 111.877C707.694 111.754 707.606 111.598 707.571 111.427C707.535 111.257 707.553 111.08 707.623 110.919C707.693 110.759 707.812 110.621 707.964 110.525C708.116 110.428 708.295 110.377 708.478 110.377C708.724 110.377 708.959 110.469 709.132 110.634C709.306 110.799 709.404 111.023 709.404 111.256ZM715.264 110.377C715.081 110.377 714.902 110.428 714.75 110.525C714.598 110.621 714.479 110.759 714.409 110.919C714.339 111.08 714.321 111.257 714.356 111.427C714.392 111.598 714.48 111.754 714.61 111.877C714.739 112 714.904 112.084 715.083 112.118C715.263 112.152 715.449 112.134 715.618 112.068C715.787 112.001 715.932 111.889 716.033 111.744C716.135 111.6 716.189 111.43 716.189 111.256C716.189 111.023 716.092 110.799 715.918 110.634C715.745 110.469 715.509 110.377 715.264 110.377ZM719.891 104.516V110.963C719.891 114.84 716.293 117.995 711.871 117.995C707.449 117.995 703.852 114.84 703.852 110.963V104.516C703.852 104.285 703.924 104.058 704.06 103.865C704.195 103.673 704.388 103.523 704.613 103.434C704.839 103.345 705.087 103.322 705.326 103.367C705.565 103.412 705.785 103.524 705.957 103.688C705.968 103.698 705.977 103.708 705.987 103.718L707.322 105.176C708.686 104.363 710.264 103.932 711.875 103.932C713.485 103.932 715.063 104.363 716.428 105.176L717.755 103.718C717.765 103.708 717.774 103.698 717.785 103.688C717.957 103.524 718.177 103.412 718.416 103.367C718.655 103.322 718.903 103.345 719.129 103.434C719.354 103.523 719.547 103.673 719.682 103.865C719.818 104.058 719.89 104.285 719.891 104.516ZM718.657 104.516L716.994 106.333C716.893 106.445 716.75 106.516 716.596 106.532C716.441 106.549 716.286 106.509 716.161 106.421C715.784 106.157 715.381 105.929 714.955 105.743V107.446C714.955 107.602 714.89 107.751 714.775 107.861C714.659 107.971 714.502 108.032 714.339 108.032C714.175 108.032 714.018 107.971 713.902 107.861C713.787 107.751 713.722 107.602 713.722 107.446V105.326C713.317 105.227 712.904 105.16 712.488 105.126V107.446C712.488 107.602 712.423 107.751 712.307 107.861C712.192 107.971 712.035 108.032 711.871 108.032C711.707 108.032 711.551 107.971 711.435 107.861C711.319 107.751 711.254 107.602 711.254 107.446V105.126C710.838 105.16 710.425 105.227 710.02 105.326V107.446C710.02 107.602 709.955 107.751 709.84 107.861C709.724 107.971 709.567 108.032 709.404 108.032C709.24 108.032 709.083 107.971 708.967 107.861C708.852 107.751 708.787 107.602 708.787 107.446V105.743C708.362 105.929 707.958 106.157 707.581 106.421C707.457 106.509 707.301 106.549 707.147 106.533C706.992 106.517 706.85 106.447 706.748 106.335L705.085 104.516V110.963C705.085 114.014 707.8 116.53 711.254 116.799V115.307L710.201 114.307C710.144 114.252 710.098 114.188 710.067 114.117C710.036 114.045 710.02 113.969 710.02 113.892C710.02 113.815 710.036 113.739 710.067 113.668C710.098 113.597 710.144 113.532 710.201 113.478C710.317 113.368 710.474 113.306 710.638 113.306C710.719 113.306 710.799 113.322 710.874 113.351C710.948 113.381 711.016 113.424 711.074 113.478L711.871 114.236L712.668 113.478C712.726 113.424 712.794 113.381 712.868 113.351C712.943 113.322 713.024 113.306 713.105 113.306C713.186 113.306 713.266 113.322 713.341 113.351C713.416 113.38 713.484 113.423 713.541 113.478C713.598 113.532 713.644 113.597 713.675 113.668C713.706 113.739 713.722 113.815 713.722 113.892C713.722 113.969 713.706 114.045 713.675 114.117C713.644 114.188 713.599 114.252 713.541 114.307L712.488 115.307V116.799C715.942 116.529 718.657 114.015 718.657 110.963V104.516Z" fill="#3E63DD"/>
</g>
</svg>
