<svg width="797" height="181" viewBox="0 0 797 181" fill="none" xmlns="http://www.w3.org/2000/svg">
<path opacity="0.2" d="M6.00001 147H791C794.314 147 797 149.686 797 153V154C797 157.314 794.314 160 791 160H6C2.68629 160 0 157.314 0 154V153C0 149.686 2.6863 147 6.00001 147Z" fill="#10B3A3"/>
<path opacity="0.2" d="M27.75 67.6251H64.75V132.375H27.75V67.6251ZM110.214 48.1943C110.091 47.597 109.851 47.03 109.508 46.5258C109.164 46.0217 108.725 45.5903 108.215 45.2567C107.704 44.923 107.133 44.6936 106.533 44.5816C105.934 44.4696 105.318 44.4773 104.722 44.6042L77.6595 50.3854C76.4564 50.6512 75.4073 51.3822 74.7412 52.4187C74.0751 53.4553 73.846 54.7133 74.1041 55.9181L80.8161 87.8595L116.926 80.101L110.214 48.1943Z" fill="#10B3A3"/>
<path d="M133.923 138.474L114.735 47.2461C114.487 46.0531 114.005 44.9208 113.318 43.9144C112.631 42.9081 111.752 42.0473 110.731 41.3817C109.71 40.7161 108.568 40.2588 107.37 40.0359C106.172 39.813 104.942 39.8291 103.75 40.0831L76.6883 45.899C74.2945 46.4232 72.2046 47.8712 70.8729 49.9282C69.5413 51.9853 69.0757 54.4849 69.5773 56.8834L88.7653 148.112C89.1929 150.193 90.3241 152.064 91.9686 153.409C93.6132 154.755 95.6708 155.493 97.7956 155.5C98.4525 155.499 99.1074 155.429 99.7497 155.292L126.812 149.476C129.208 148.951 131.3 147.5 132.632 145.439C133.964 143.378 134.428 140.875 133.923 138.474ZM78.625 54.9929C78.625 54.9582 78.625 54.9409 78.625 54.9409L105.681 49.1597L107.606 58.3345L80.5502 64.1562L78.625 54.9929ZM82.4522 73.1865L109.52 67.3764L111.451 76.5686L84.4062 82.3845L82.4522 73.1865ZM86.2909 91.4379L113.359 85.622L121.048 122.183L93.98 127.999L86.2909 91.4379ZM124.875 140.434L97.8187 146.215L95.8936 137.04L122.95 131.219L124.875 140.382C124.875 140.417 124.875 140.434 124.875 140.434ZM60.125 44.5H32.375C29.9217 44.5 27.569 45.4745 25.8343 47.2092C24.0996 48.9439 23.125 51.2967 23.125 53.75V146.25C23.125 148.703 24.0996 151.056 25.8343 152.791C27.569 154.525 29.9217 155.5 32.375 155.5H60.125C62.5783 155.5 64.931 154.525 66.6657 152.791C68.4004 151.056 69.375 148.703 69.375 146.25V53.75C69.375 51.2967 68.4004 48.9439 66.6657 47.2092C64.931 45.4745 62.5783 44.5 60.125 44.5ZM32.375 53.75H60.125V63H32.375V53.75ZM32.375 72.25H60.125V127.75H32.375V72.25ZM60.125 146.25H32.375V137H60.125V146.25Z" fill="#10B3A3"/>
<path opacity="0.2" d="M250.375 126.969V143.594C250.374 145.13 249.947 146.637 249.142 147.946C248.336 149.254 247.184 150.314 245.813 151.008C244.441 151.701 242.904 152 241.373 151.873C239.841 151.745 238.375 151.196 237.137 150.285C228.83 144.248 216.605 139.438 200.5 139.438C184.395 139.438 172.17 144.248 163.863 150.285C162.625 151.196 161.159 151.745 159.627 151.873C158.096 152 156.559 151.701 155.187 151.008C153.816 150.314 152.664 149.254 151.858 147.946C151.053 146.637 150.626 145.13 150.625 143.594V126.969C165.014 116.177 182.514 110.344 200.5 110.344C218.486 110.344 235.986 116.177 250.375 126.969Z" fill="#10B3A3"/>
<path d="M200.5 60.4688C186.175 60.4853 172.442 66.1831 162.312 76.3124C152.183 86.4416 146.485 100.175 146.469 114.5V143.594C146.469 146.901 147.782 150.072 150.121 152.41C152.459 154.749 155.631 156.062 158.938 156.062C161.586 156.058 164.165 155.214 166.304 153.652C172.617 149.064 183.667 143.594 200.5 143.594C217.333 143.594 228.383 149.059 234.69 153.647C236.548 155.009 238.747 155.83 241.043 156.018C243.34 156.206 245.643 155.755 247.698 154.713C249.753 153.672 251.48 152.082 252.686 150.119C253.892 148.156 254.531 145.898 254.531 143.594V114.5C254.515 100.175 248.817 86.4416 238.688 76.3124C228.558 66.1831 214.825 60.4853 200.5 60.4688ZM246.219 114.5V119.108C239.589 115.006 232.434 111.822 224.949 109.642C223.341 95.3111 218.186 81.6066 209.95 69.7684C220.201 71.9489 229.395 77.5794 235.995 85.7203C242.596 93.8611 246.204 104.02 246.219 114.5ZM200.5 70.9996C208.799 81.6557 214.236 94.2568 216.294 107.606C205.843 105.715 195.137 105.715 184.685 107.606C186.768 94.2602 192.21 81.6634 200.5 70.9996ZM191.05 69.7684C182.813 81.6081 177.658 95.3145 176.051 109.648C168.566 111.827 161.411 115.011 154.781 119.113V114.5C154.796 104.02 158.404 93.8611 165.005 85.7203C171.605 77.5794 180.799 71.9489 191.05 69.7684ZM243.964 147.288C243.273 147.644 242.495 147.799 241.72 147.736C240.945 147.673 240.203 147.393 239.579 146.929C232.275 141.62 219.567 135.281 200.5 135.281C181.433 135.281 168.725 141.62 161.421 146.929C160.797 147.393 160.055 147.673 159.28 147.736C158.505 147.799 157.727 147.644 157.036 147.288C156.348 146.949 155.771 146.422 155.372 145.768C154.973 145.114 154.768 144.36 154.781 143.594V129.083C168.139 119.598 184.117 114.503 200.5 114.503C216.883 114.503 232.861 119.598 246.219 129.083V143.594C246.232 144.36 246.027 145.114 245.628 145.768C245.229 146.422 244.652 146.949 243.964 147.288Z" fill="#10B3A3"/>
<path opacity="0.2" d="M616.906 100.938L607.147 144.593C606.883 145.772 606.222 146.827 605.274 147.583C604.325 148.338 603.146 148.75 601.93 148.75H557.07C555.854 148.75 554.675 148.338 553.726 147.583C552.778 146.827 552.117 145.772 551.853 144.593L542.094 100.938H616.906Z" fill="#10B3A3"/>
<path d="M627.593 95.625H576.36L577.93 94.0645L591.329 80.7434C596.741 83.453 602.704 84.8975 608.763 84.9668C614.862 84.9829 620.847 83.3237 626.057 80.1723C641.901 70.6364 650.391 48.5629 648.768 21.1239C648.691 19.8242 648.138 18.5976 647.212 17.6771C646.286 16.7565 645.052 16.206 643.745 16.1301C616.144 14.5231 593.941 22.9567 584.342 38.7082C578.097 48.968 577.936 61.3594 583.768 73.2395L574.156 82.7954L566 74.6872C570.008 65.8883 569.72 56.7575 565.071 49.134C557.81 37.1875 541.158 30.8125 520.538 32.0211C519.233 32.0984 518.001 32.6487 517.077 33.5677C516.153 34.4868 515.599 35.7108 515.521 37.0082C514.306 57.5079 520.718 74.0563 532.742 81.2813C536.764 83.723 541.388 85.0101 546.101 85C550.377 84.9579 554.594 84.0093 558.472 82.2176L566.601 90.3125L561.257 95.625H531.406C529.988 95.625 528.629 96.1848 527.627 97.181C526.625 98.1773 526.062 99.5286 526.062 100.938C526.062 102.347 526.625 103.698 527.627 104.694C528.629 105.69 529.988 106.25 531.406 106.25H537.811L546.635 145.742C547.15 148.108 548.468 150.227 550.368 151.742C552.268 153.257 554.634 154.076 557.069 154.063H601.936C604.371 154.074 606.736 153.253 608.635 151.739C610.534 150.224 611.853 148.107 612.37 145.742L621.194 106.25H627.593C629.01 106.25 630.37 105.69 631.372 104.694C632.374 103.698 632.937 102.347 632.937 100.938C632.937 99.5286 632.374 98.1773 631.372 97.181C630.37 96.1848 629.01 95.625 627.593 95.625ZM593.527 44.2133C600.514 32.7516 617.059 26.2836 638.281 26.5692C638.554 47.693 632.062 64.1418 620.533 71.0614C612.844 75.7098 603.566 75.4043 594.295 70.2778C589.131 61.0938 588.851 51.8567 593.527 44.2133ZM555.526 71.7918C549.381 75.059 543.295 75.2118 538.272 72.1903C530.591 67.5618 526.162 56.6512 526.062 42.5C540.296 42.5997 551.278 47.0024 555.927 54.6391C558.973 59.6329 558.792 65.6825 555.526 71.7918ZM601.936 143.438H557.069L548.773 106.25H610.226L601.936 143.438Z" fill="#10B3A3"/>
<g clip-path="url(#clip0_47_3124)">
<path d="M388 43.0909V142.909C388 145.853 387.02 148.676 385.28 150.753C383.54 152.83 381.16 154 378.7 154H276.3C273.84 154 271.46 152.83 269.72 150.753C267.98 148.676 267 145.853 267 142.909V43.0909C267 40.1468 267.98 37.3236 269.72 35.2466C271.48 33.1696 273.84 32 276.3 32H378.7C381.16 32 383.54 33.1696 385.28 35.2466C387.02 37.3236 388 40.1468 388 43.0909ZM378.7 142.909V43.0909H276.3V142.909H378.7Z" fill="#0BB2A2"/>
<path opacity="0.2" d="M327.5 55.8152C320.2 55.8152 313.08 57.993 307 62.0866C300.94 66.1801 296.2 71.9877 293.42 78.7834C290.62 85.5792 289.9 93.0605 291.32 100.28C292.74 107.499 296.26 114.113 301.42 119.316C306.58 124.518 313.16 128.067 320.3 129.499C327.46 130.931 334.88 130.205 341.62 127.382C348.36 124.559 354.12 119.8 358.18 113.69C362.24 107.579 364.4 100.38 364.4 93.0201C364.4 83.1593 360.52 73.7018 353.6 66.7246C346.68 59.7474 337.3 55.8353 327.52 55.8353L327.5 55.8152ZM327.5 102.296C325.68 102.296 323.9 101.752 322.38 100.723C320.86 99.6949 319.68 98.2429 318.98 96.5491C318.28 94.8552 318.1 92.9798 318.46 91.1851C318.82 89.3904 319.7 87.7167 320.98 86.4261C322.26 85.1355 323.92 84.2482 325.7 83.8853C327.48 83.5223 329.34 83.7038 331.02 84.4096C332.7 85.1153 334.14 86.3051 335.16 87.8377C336.18 89.3702 336.72 91.1649 336.72 93C336.72 95.4601 335.74 97.8396 334.02 99.5739C332.3 101.308 329.94 102.296 327.5 102.296Z" fill="#0BB2A2"/>
<path d="M327.5 52.7097C319.6 52.7097 311.88 55.0691 305.3 59.5054C298.72 63.9418 293.6 70.2334 290.58 77.5937C287.56 84.954 286.76 93.0605 288.3 100.864C289.84 108.689 293.64 115.867 299.24 121.494C304.82 127.12 311.94 130.971 319.7 132.524C327.46 134.077 335.48 133.29 342.78 130.225C350.08 127.18 356.32 122.018 360.72 115.383C365.12 108.749 367.46 100.965 367.46 93C367.46 82.3124 363.24 72.0684 355.74 64.5266C348.24 56.9646 338.1 52.7299 327.5 52.7097ZM327.5 127.099C320.82 127.099 314.28 125.103 308.72 121.352C303.16 117.602 298.82 112.278 296.26 106.047C293.7 99.8158 293.04 92.9596 294.34 86.3454C295.64 79.7312 298.86 73.6615 303.6 68.8823C308.32 64.1233 314.36 60.8767 320.92 59.5457C327.48 58.235 334.28 58.9005 340.46 61.4816C346.64 64.0628 351.92 68.4386 355.64 74.0446C359.36 79.6505 361.34 86.2446 361.34 92.9798C361.34 102.014 357.76 110.685 351.42 117.077C345.08 123.47 336.48 127.059 327.52 127.079L327.5 127.099ZM327.5 71.3223C321.8 71.3223 316.32 73.6211 312.3 77.6743C308.26 81.7477 306 87.2529 306 93C306 93.8267 305.68 94.6132 305.1 95.198C304.52 95.7828 303.74 96.1054 302.92 96.1054C302.1 96.1054 301.32 95.7828 300.74 95.198C300.16 94.6132 299.84 93.8267 299.84 93C299.84 85.5993 302.76 78.5213 307.96 73.2783C313.14 68.0555 320.18 65.1114 327.52 65.0912C328.34 65.0912 329.12 65.4138 329.7 65.9986C330.28 66.5834 330.6 67.3699 330.6 68.1967C330.6 69.0234 330.28 69.8099 329.7 70.3947C329.12 70.9795 328.34 71.3021 327.52 71.3021L327.5 71.3223ZM355.16 93.0201C355.16 100.421 352.24 107.499 347.04 112.742C341.86 117.965 334.82 120.909 327.48 120.929C326.66 120.929 325.88 120.606 325.3 120.021C324.72 119.437 324.4 118.65 324.4 117.823C324.4 116.997 324.72 116.21 325.3 115.625C325.88 115.041 326.66 114.718 327.48 114.718C333.18 114.718 338.66 112.419 342.68 108.366C346.72 104.293 348.98 98.7874 348.98 93.0403C348.98 92.2135 349.3 91.4271 349.88 90.8423C350.46 90.2575 351.24 89.9348 352.06 89.9348C352.88 89.9348 353.66 90.2575 354.24 90.8423C354.82 91.4271 355.14 92.2135 355.14 93.0403L355.16 93.0201ZM339.8 93.0201C339.8 90.56 339.08 88.1805 337.72 86.1236C336.36 84.0869 334.44 82.4938 332.2 81.5662C329.96 80.6185 327.48 80.3765 325.1 80.8605C322.72 81.3444 320.52 82.514 318.8 84.2482C317.08 85.9824 315.9 88.2006 315.44 90.6003C314.96 93 315.2 95.5005 316.14 97.759C317.08 100.017 318.64 101.953 320.66 103.325C322.68 104.696 325.06 105.422 327.5 105.422C330.76 105.422 333.88 104.111 336.2 101.792C338.5 99.473 339.8 96.3071 339.8 93.0201ZM321.36 93.0201C321.36 91.79 321.72 90.6003 322.4 89.5719C323.08 88.5434 324.04 87.757 325.16 87.2932C326.28 86.8294 327.52 86.7084 328.72 86.9504C329.92 87.1924 331 87.7772 331.86 88.6443C332.72 89.5114 333.3 90.6205 333.54 91.8102C333.78 93.0201 333.66 94.2502 333.2 95.3996C332.74 96.5289 331.94 97.4968 330.94 98.1824C329.92 98.8681 328.74 99.231 327.52 99.231C325.88 99.231 324.32 98.5857 323.18 97.4162C322.02 96.2466 321.38 94.6737 321.38 93.0403L321.36 93.0201Z" fill="#0BB2A2"/>
</g>
<g clip-path="url(#clip1_47_3124)">
<path opacity="0.2" d="M766.138 52H658.862C657.561 52 656.321 52.5228 655.42 53.4276C654.52 54.3324 654 55.5991 654 56.8859V145.114C654 146.421 654.52 147.668 655.42 148.572C656.321 149.477 657.581 150 658.862 150H766.138C767.439 150 768.679 149.477 769.58 148.572C770.48 147.668 771 146.401 771 145.114V56.906C771 55.5991 770.48 54.3525 769.58 53.4477C768.679 52.5429 767.419 52.0201 766.138 52.0201V52ZM712.5 130.416C690.953 130.416 671 117.246 671 101.02C671 84.794 690.953 71.6241 712.5 71.6241C734.047 71.6241 751.513 84.794 751.513 101.02C751.513 117.246 734.047 130.416 712.5 130.416Z" fill="#0BB2A2"/>
<path d="M764.471 49H659.549C657.005 49 654.579 49.9979 652.798 51.7982C651.018 53.5788 650 56.0052 650 58.549V144.392C650 146.916 650.998 149.343 652.798 151.143C654.579 152.924 657.005 153.941 659.549 153.941H764.471C766.995 153.941 769.421 152.943 771.221 151.143C773.002 149.362 774.02 146.936 774.02 144.392V58.549C774.02 56.0248 773.022 53.5984 771.221 51.7982C769.441 50.0175 767.014 49 764.471 49ZM764.471 144.392H659.549V58.549H764.471V144.392Z" fill="#0BB2A2"/>
<path d="M712.178 136.641C686.172 136.641 665 121.026 665 101.83C665 82.6345 686.153 67 712.178 67C738.202 67 759.355 82.615 759.355 101.811C759.355 121.007 738.183 136.622 712.178 136.622V136.641ZM712.178 74.827C690.477 74.827 672.827 86.9394 672.827 101.811C672.827 116.682 690.477 128.795 712.178 128.795C733.878 128.795 751.528 116.682 751.528 101.811C751.528 86.9394 733.878 74.827 712.178 74.827Z" fill="#0BB2A2"/>
<path opacity="0.2" d="M698.375 101.107V108.562C698.375 109.557 697.98 110.511 697.277 111.214C696.573 111.917 695.62 112.312 694.625 112.312H683.375C682.38 112.312 681.427 111.917 680.723 111.214C680.02 110.511 679.625 109.557 679.625 108.562V101.107L686.188 92.625H691.812L698.375 101.107Z" fill="#10B3A3"/>
<path d="M702.091 101.648L700.167 91.3359C700.12 91.0846 700.022 90.8455 699.879 90.6333C699.736 90.4212 699.551 90.2406 699.336 90.1025C699.121 89.9644 698.879 89.8718 698.627 89.8304C698.375 89.789 698.117 89.7997 697.868 89.8617L697.832 89.8723L691.677 91.6875H686.322L680.167 89.8781L680.131 89.8676C679.883 89.8055 679.625 89.7949 679.372 89.8363C679.12 89.8777 678.879 89.9703 678.664 90.1083C678.448 90.2464 678.264 90.4271 678.121 90.6392C677.978 90.8513 677.88 91.0904 677.833 91.3418L675.909 101.648C675.826 102.061 675.888 102.49 676.082 102.863C676.276 103.236 676.592 103.532 676.977 103.702C677.224 103.815 677.492 103.874 677.764 103.875C678.089 103.875 678.408 103.787 678.687 103.622V108.562C678.687 109.806 679.181 110.998 680.06 111.877C680.939 112.756 682.132 113.25 683.375 113.25H694.625C695.868 113.25 697.06 112.756 697.939 111.877C698.818 110.998 699.312 109.806 699.312 108.562V103.623C699.592 103.788 699.91 103.876 700.234 103.876C700.506 103.875 700.775 103.817 701.022 103.704C701.408 103.534 701.724 103.238 701.918 102.864C702.113 102.491 702.174 102.062 702.091 101.648ZM677.75 102L679.675 91.6875L684.605 93.1371L677.75 102ZM694.625 111.375H689.937V109.888L691.538 108.288C691.714 108.112 691.813 107.874 691.813 107.625C691.813 107.376 691.714 107.138 691.538 106.962C691.362 106.786 691.124 106.687 690.875 106.687C690.626 106.687 690.387 106.786 690.211 106.962L689 108.175L687.788 106.962C687.612 106.786 687.374 106.687 687.125 106.687C686.876 106.687 686.637 106.786 686.461 106.962C686.286 107.138 686.187 107.376 686.187 107.625C686.187 107.874 686.286 108.112 686.461 108.288L688.062 109.888V111.375H683.375C682.629 111.375 681.913 111.079 681.386 110.551C680.859 110.024 680.562 109.308 680.562 108.562V101.427L686.648 93.5625H691.352L697.437 101.427V108.562C697.437 109.308 697.141 110.024 696.613 110.551C696.086 111.079 695.371 111.375 694.625 111.375ZM700.25 102L693.394 93.1371L698.324 91.6875L700.25 102ZM686.187 103.406C686.187 103.684 686.105 103.956 685.95 104.188C685.796 104.419 685.576 104.599 685.319 104.705C685.062 104.812 684.779 104.84 684.507 104.785C684.234 104.731 683.983 104.597 683.787 104.401C683.59 104.204 683.456 103.953 683.402 103.681C683.347 103.408 683.375 103.125 683.482 102.868C683.588 102.611 683.768 102.392 684 102.237C684.231 102.082 684.503 102 684.781 102C685.154 102 685.512 102.148 685.775 102.412C686.039 102.676 686.187 103.033 686.187 103.406ZM694.625 103.406C694.625 103.684 694.542 103.956 694.388 104.188C694.233 104.419 694.014 104.599 693.757 104.705C693.5 104.812 693.217 104.84 692.944 104.785C692.671 104.731 692.421 104.597 692.224 104.401C692.027 104.204 691.894 103.953 691.839 103.681C691.785 103.408 691.813 103.125 691.919 102.868C692.026 102.611 692.206 102.392 692.437 102.237C692.668 102.082 692.94 102 693.218 102C693.591 102 693.949 102.148 694.213 102.412C694.477 102.676 694.625 103.033 694.625 103.406Z" fill="#10B3A3"/>
<path opacity="0.2" d="M744.375 101.107V108.562C744.375 109.557 743.98 110.511 743.277 111.214C742.573 111.917 741.62 112.312 740.625 112.312H729.375C728.38 112.312 727.427 111.917 726.723 111.214C726.02 110.511 725.625 109.557 725.625 108.562V101.107L732.188 92.625H737.812L744.375 101.107Z" fill="#10B3A3"/>
<path d="M748.091 101.648L746.167 91.3359C746.12 91.0846 746.022 90.8455 745.879 90.6333C745.736 90.4212 745.551 90.2406 745.336 90.1025C745.121 89.9644 744.879 89.8718 744.627 89.8304C744.375 89.789 744.117 89.7997 743.868 89.8617L743.832 89.8723L737.677 91.6875H732.322L726.167 89.8781L726.131 89.8676C725.883 89.8055 725.625 89.7949 725.372 89.8363C725.12 89.8777 724.879 89.9703 724.664 90.1083C724.448 90.2464 724.264 90.4271 724.121 90.6392C723.978 90.8513 723.88 91.0904 723.833 91.3418L721.909 101.648C721.826 102.061 721.888 102.49 722.082 102.863C722.276 103.236 722.592 103.532 722.977 103.702C723.224 103.815 723.492 103.874 723.764 103.875C724.089 103.875 724.408 103.787 724.687 103.622V108.562C724.687 109.806 725.181 110.998 726.06 111.877C726.939 112.756 728.132 113.25 729.375 113.25H740.625C741.868 113.25 743.06 112.756 743.939 111.877C744.818 110.998 745.312 109.806 745.312 108.562V103.623C745.592 103.788 745.91 103.876 746.234 103.876C746.506 103.875 746.775 103.817 747.022 103.704C747.408 103.534 747.724 103.238 747.918 102.864C748.113 102.491 748.174 102.062 748.091 101.648ZM723.75 102L725.675 91.6875L730.605 93.1371L723.75 102ZM740.625 111.375H735.937V109.888L737.538 108.288C737.714 108.112 737.813 107.874 737.813 107.625C737.813 107.376 737.714 107.138 737.538 106.962C737.362 106.786 737.124 106.687 736.875 106.687C736.626 106.687 736.387 106.786 736.211 106.962L735 108.175L733.788 106.962C733.612 106.786 733.374 106.687 733.125 106.687C732.876 106.687 732.637 106.786 732.461 106.962C732.286 107.138 732.187 107.376 732.187 107.625C732.187 107.874 732.286 108.112 732.461 108.288L734.062 109.888V111.375H729.375C728.629 111.375 727.913 111.079 727.386 110.551C726.859 110.024 726.562 109.308 726.562 108.562V101.427L732.648 93.5625H737.352L743.437 101.427V108.562C743.437 109.308 743.141 110.024 742.613 110.551C742.086 111.079 741.371 111.375 740.625 111.375ZM746.25 102L739.394 93.1371L744.324 91.6875L746.25 102ZM732.187 103.406C732.187 103.684 732.105 103.956 731.95 104.188C731.796 104.419 731.576 104.599 731.319 104.705C731.062 104.812 730.779 104.84 730.507 104.785C730.234 104.731 729.983 104.597 729.787 104.401C729.59 104.204 729.456 103.953 729.402 103.681C729.347 103.408 729.375 103.125 729.482 102.868C729.588 102.611 729.768 102.392 730 102.237C730.231 102.082 730.503 102 730.781 102C731.154 102 731.512 102.148 731.775 102.412C732.039 102.676 732.187 103.033 732.187 103.406ZM740.625 103.406C740.625 103.684 740.542 103.956 740.388 104.188C740.233 104.419 740.014 104.599 739.757 104.705C739.5 104.812 739.217 104.84 738.944 104.785C738.671 104.731 738.421 104.597 738.224 104.401C738.027 104.204 737.894 103.953 737.839 103.681C737.785 103.408 737.813 103.125 737.919 102.868C738.026 102.611 738.206 102.392 738.437 102.237C738.668 102.082 738.94 102 739.218 102C739.591 102 739.949 102.148 740.213 102.412C740.477 102.676 740.625 103.033 740.625 103.406Z" fill="#10B3A3"/>
<path opacity="0.2" d="M720.25 99.9375V107.156C720.25 111.143 716.555 114.375 712 114.375C707.445 114.375 703.75 111.143 703.75 107.156V99.9375C703.75 99.8077 703.79 99.6807 703.866 99.5727C703.941 99.4647 704.049 99.3805 704.174 99.3307C704.3 99.281 704.438 99.268 704.572 99.2934C704.705 99.3188 704.828 99.3813 704.924 99.4732L706.809 101.545C708.319 100.5 710.135 99.9376 712 99.9376C713.865 99.9376 715.681 100.5 717.191 101.545L719.076 99.4749C719.172 99.3831 719.295 99.3205 719.428 99.2951C719.561 99.2697 719.699 99.2826 719.825 99.3321C719.95 99.3816 720.058 99.4655 720.134 99.5733C720.209 99.681 720.25 99.8078 720.25 99.9375Z" fill="#10B3A3"/>
<path d="M709.25 107.484C709.25 107.679 709.19 107.869 709.076 108.031C708.963 108.193 708.802 108.319 708.613 108.394C708.425 108.468 708.218 108.488 708.018 108.45C707.818 108.412 707.634 108.318 707.49 108.18C707.345 108.043 707.247 107.867 707.207 107.676C707.168 107.485 707.188 107.287 707.266 107.108C707.344 106.928 707.476 106.774 707.646 106.666C707.815 106.558 708.015 106.5 708.219 106.5C708.492 106.5 708.755 106.604 708.948 106.788C709.141 106.973 709.25 107.223 709.25 107.484ZM715.781 106.5C715.577 106.5 715.378 106.558 715.208 106.666C715.039 106.774 714.907 106.928 714.828 107.108C714.75 107.287 714.73 107.485 714.77 107.676C714.81 107.867 714.908 108.043 715.052 108.18C715.196 108.318 715.38 108.412 715.58 108.45C715.78 108.488 715.987 108.468 716.176 108.394C716.364 108.319 716.525 108.193 716.639 108.031C716.752 107.869 716.812 107.679 716.812 107.484C716.812 107.223 716.704 106.973 716.51 106.788C716.317 106.604 716.055 106.5 715.781 106.5ZM720.938 99.9374V107.156C720.938 111.498 716.929 115.031 712 115.031C707.071 115.031 703.062 111.498 703.062 107.156V99.9374C703.063 99.6779 703.143 99.4242 703.294 99.2085C703.446 98.9928 703.66 98.8247 703.911 98.7254C704.163 98.6261 704.439 98.6001 704.706 98.6507C704.972 98.7013 705.217 98.8262 705.409 99.0096C705.421 99.0211 705.432 99.0318 705.442 99.0432L706.93 100.676C708.451 99.766 710.209 99.2836 712.004 99.2836C713.799 99.2836 715.558 99.766 717.079 100.676L718.558 99.0432C718.568 99.0318 718.579 99.0211 718.591 99.0096C718.783 98.8262 719.028 98.7013 719.294 98.6507C719.561 98.6001 719.837 98.6261 720.089 98.7254C720.34 98.8247 720.554 98.9928 720.706 99.2085C720.857 99.4242 720.937 99.6779 720.938 99.9374ZM719.562 99.9374L717.71 101.972C717.596 102.097 717.438 102.177 717.265 102.195C717.093 102.213 716.92 102.169 716.781 102.07C716.361 101.774 715.911 101.52 715.438 101.311V103.219C715.438 103.393 715.365 103.56 715.236 103.683C715.107 103.806 714.932 103.875 714.75 103.875C714.568 103.875 714.393 103.806 714.264 103.683C714.135 103.56 714.062 103.393 714.062 103.219V100.844C713.611 100.733 713.152 100.658 712.688 100.621V103.219C712.688 103.393 712.615 103.56 712.486 103.683C712.357 103.806 712.182 103.875 712 103.875C711.818 103.875 711.643 103.806 711.514 103.683C711.385 103.56 711.312 103.393 711.312 103.219V100.621C710.848 100.658 710.389 100.733 709.938 100.844V103.219C709.938 103.393 709.865 103.56 709.736 103.683C709.607 103.806 709.432 103.875 709.25 103.875C709.068 103.875 708.893 103.806 708.764 103.683C708.635 103.56 708.562 103.393 708.562 103.219V101.311C708.089 101.52 707.639 101.774 707.219 102.07C707.08 102.169 706.907 102.214 706.735 102.196C706.563 102.178 706.404 102.099 706.29 101.974L704.438 99.9374V107.156C704.438 110.574 707.463 113.391 711.312 113.692V112.021L710.139 110.901C710.075 110.84 710.024 110.768 709.99 110.688C709.955 110.608 709.937 110.523 709.937 110.437C709.937 110.35 709.955 110.265 709.99 110.186C710.024 110.106 710.075 110.034 710.139 109.973C710.268 109.85 710.443 109.781 710.625 109.781C710.716 109.781 710.805 109.798 710.888 109.831C710.972 109.864 711.048 109.912 711.111 109.973L712 110.821L712.889 109.973C712.952 109.912 713.028 109.864 713.112 109.831C713.195 109.798 713.284 109.781 713.375 109.781C713.465 109.781 713.554 109.798 713.638 109.83C713.721 109.863 713.797 109.912 713.861 109.973C713.925 110.034 713.976 110.106 714.01 110.186C714.045 110.265 714.063 110.35 714.063 110.437C714.063 110.523 714.045 110.608 714.01 110.688C713.976 110.768 713.925 110.84 713.861 110.901L712.688 112.021V113.692C716.537 113.389 719.562 110.574 719.562 107.156V99.9374Z" fill="#10B3A3"/>
</g>
<defs>
<clipPath id="clip0_47_3124">
<rect width="121" height="122" fill="white" transform="translate(267 32)"/>
</clipPath>
<clipPath id="clip1_47_3124">
<rect width="124" height="104.922" fill="white" transform="translate(650 49)"/>
</clipPath>
</defs>
</svg>
